# xmcd CD database file
#
# Track frame offsets:
#	150
#	18690
#	31210
#	44533
#	61925
#	76833
#	96346
#	111829
#	126887
#	145599
#	157087
#	170982
#	184939
#	206601
#	220774
#	231764
#	244875
#	270598
#	285287
#	302355
#	313996
#	334247
#	345808
#
# Disc length: 4773 seconds
#
# Revision: 0
# Processed by: cddbd v1.5.2PL0 Copyright (c) Steve Scherf et al.
# Submitted via: CDex 1.51
#
DISCID=4d12a317
DTITLE=Townes Van Zandt - Live At The Old Quarter (3 tracks omitted)
DYEAR=1900
DGENRE=Country
TTITLE0=102-Pancho And Lefty
TTITLE1=103-Mr Mudd And Mr Gold
TTITLE2=104-Don't You Take It Too Bad
TTITLE3=105-Two Girls
TTITLE4=107-If I Needed You
TTITLE5=108-Brand New Companion
TTITLE6=109-White Freight Liner Blues
TTITLE7=110-To Live Is To Fly
TTITLE8=111-She Came And She Touched Me
TTITLE9=112-Talking Thunderbird Blues
TTITLE10=113-Rex's Blues
TTITLE11=114-Nine Pound Hammer
TTITLE12=201-For The Sake Of The Song
TTITLE13=203-No Place To Fall
TTITLE14=204-Loretta
TTITLE15=205-Kathleen
TTITLE16=206-Why She's Acting This Way
TTITLE17=208-Who Do You Love
TTITLE18=209-Tower Song
TTITLE19=210-Waiting Around To Die
TTITLE20=211-Tecumseh Valley
TTITLE21=212-Lungs
TTITLE22=213-Only Him Or Me
EXTD=
EXTT0=
EXTT1=
EXTT2=
EXTT3=
EXTT4=
EXTT5=
EXTT6=
EXTT7=
EXTT8=
EXTT9=
EXTT10=
EXTT11=
EXTT12=
EXTT13=
EXTT14=
EXTT15=
EXTT16=
EXTT17=
EXTT18=
EXTT19=
EXTT20=
EXTT21=
EXTT22=
PLAYORDER=
